<?xml version="1.0" encoding="iso-8859-1"?>
<!-- Uploaded to: SVG Repo, www.svgrepo.com, Generator: SVG Repo Mixer Tools -->
<svg fill="#000000" version="1.1" id="Layer_1" xmlns="http://www.w3.org/2000/svg" xmlns:xlink="http://www.w3.org/1999/xlink" 
	 viewBox="0 0 512 512" xml:space="preserve">
<g>
	<g>
		<path d="M0,68.882v99.16h41.535v65.829h0.066C44.382,349.725,139.489,443.118,256,443.118s211.618-93.392,214.399-209.247h0.066
			v-65.829H512V68.882H0z M256,411.771c-99.226,0-180.267-79.333-183.039-177.9H439.04C436.267,332.438,355.226,411.771,256,411.771
			z M439.118,202.524H72.882v-34.482h366.237V202.524z M480.653,136.696h-10.188H41.535H31.347v-36.467h449.306V136.696z"/>
	</g>
</g>
<g>
	<g>
		<path d="M256,254.351c-38.891,0-70.531,31.64-70.531,70.531s31.639,70.531,70.531,70.531s70.531-31.639,70.531-70.531
			S294.891,254.351,256,254.351z M256,364.065c-21.606,0-39.184-17.577-39.184-39.184c0-21.606,17.577-39.184,39.184-39.184
			s39.184,17.577,39.184,39.184C295.184,346.488,277.606,364.065,256,364.065z"/>
	</g>
</g>
<g>
	<g>
		<rect x="242.416" y="311.296" width="27.167" height="27.167"/>
	</g>
</g>
</svg>